<svg version="1.1" id="Pokéball" xmlns="http://www.w3.org/2000/svg" x="0" y="0" viewBox="0 0 75.391 75.239" style="enable-background:new 0 0 595.3 594.1" xml:space="preserve" transform="scale(-1 1)" width="80" height="79.839"><style>.st0{fill:#fff}</style><g id="Pokéball_1_"><g id="Colours"><path id="Down" class="st0" d="M37.689 48.239a10.633 10.633 0 0 1 -10.397 -8.435H10.271c1.203 13.993 12.943 24.975 27.241 24.975s26.051 -10.981 27.241 -24.975h-16.667a10.624 10.624 0 0 1 -10.397 8.435z"/><path id="Shadow_Down" d="M43.768 64.069c11.347 -2.659 19.971 -12.373 20.984 -24.264H58.04c-0.672 10.791 -6.333 19.935 -14.272 24.264z" style="fill:#dfdfdf"/><path id="Center" class="st0" d="M43.959 37.613c-0.013 0 -0.013 0 0 0a6.601 6.601 0 0 0 -0.405 -2.191c-0.887 -2.381 -3.179 -4.065 -5.864 -4.065s-4.977 1.697 -5.864 4.065a6.28 6.28 0 0 0 -0.392 2.191h0.013a6.283 6.283 0 0 0 0.392 2.191 6.251 6.251 0 0 0 5.864 4.065 6.269 6.269 0 0 0 5.864 -4.065c0.253 -0.672 0.392 -1.419 0.392 -2.191z"/><path id="Up" d="M37.701 27a10.633 10.633 0 0 1 10.397 8.435H65.12c-1.203 -14.008 -12.943 -24.987 -27.255 -24.987S11.829 21.427 10.625 35.423h16.679a10.624 10.624 0 0 1 10.397 -8.423z" style="fill:#ff1c1c"/><path id="Shadow_Up" d="M58.04 35.423h7.067c-1.039 -12.095 -9.953 -21.947 -21.592 -24.392 8.08 4.267 13.841 13.501 14.527 24.392z" style="fill:#df1818"/></g><path id="Line" d="M37.865 10.448c14.311 0 26.051 10.981 27.241 24.975H48.087c-1.013 -4.813 -5.281 -8.435 -10.397 -8.435a10.633 10.633 0 0 0 -10.397 8.435h-16.667C11.829 21.429 23.568 10.448 37.867 10.448zm5.687 24.975a6.28 6.28 0 0 1 0.392 2.191h0.013a6.283 6.283 0 0 1 -0.392 2.191 6.251 6.251 0 0 1 -5.864 4.065 6.269 6.269 0 0 1 -5.864 -4.065 6.28 6.28 0 0 1 -0.392 -2.191h-0.013a6.283 6.283 0 0 1 0.392 -2.191c0.887 -2.381 3.179 -4.065 5.864 -4.065s4.977 1.697 5.864 4.065zm-6.041 29.368c-14.311 0 -26.051 -10.981 -27.241 -24.975h17.021c1.013 4.813 5.281 8.435 10.397 8.435s9.384 -3.623 10.397 -8.435h16.679c-1.203 13.981 -12.943 24.975 -27.255 24.975zm0.177 -59.56c-17.881 0 -32.383 14.501 -32.383 32.383s14.501 32.383 32.383 32.383S70.083 55.508 70.083 37.613 55.584 5.231 37.689 5.231z"/></g></svg>